<svg width="653" height="399" viewBox="0 0 653 399" fill="none" xmlns="http://www.w3.org/2000/svg">
<path d="M6.64166 66.1538C35.1979 61.0445 95.9872 52.3587 110.694 58.4898" stroke="#4391C9" stroke-opacity="0.5" stroke-width="10" stroke-linecap="round" stroke-linejoin="round"/>
<path d="M109.432 60.8915C109.432 90.0665 85.4114 113.769 55.7161 113.769C26.0208 113.769 2 90.0665 2 60.8915C2 31.7165 26.0208 8.01398 55.7161 8.01398C85.4114 8.01398 109.432 31.7165 109.432 60.8915Z" stroke="#A1C8E4" stroke-width="4"/>
<path d="M303.866 221.447C278.388 207.35 225.49 175.625 217.72 161.505" stroke="#4391C9" stroke-opacity="0.5" stroke-width="10" stroke-linecap="round" stroke-linejoin="round"/>
<path d="M220.164 160.415C237.96 137.601 271.239 134.237 294.515 153.078C317.791 171.92 322.094 205.703 304.297 228.518C286.501 251.332 253.223 254.695 229.946 235.854C206.67 217.013 202.368 183.229 220.164 160.415Z" stroke="#A1C8E4" stroke-width="4"/>
<path d="M106.229 228.257C101.848 257.453 90.4844 318.903 80.0781 331.137" stroke="#4391C9" stroke-opacity="0.5" stroke-width="10" stroke-linecap="round" stroke-linejoin="round"/>
<path d="M78.2373 329.183C51.1776 319.878 36.7544 289.143 46.2775 260.405C55.8006 231.666 85.5586 216.124 112.618 225.429C139.678 234.733 154.101 265.468 144.578 294.207C135.055 322.945 105.297 338.488 78.2373 329.183Z" stroke="#A1C8E4" stroke-width="4"/>
<path d="M320.275 338.86C348.832 343.97 409.621 352.655 424.328 346.524" stroke="#4391C9" stroke-opacity="0.5" stroke-width="10" stroke-linecap="round" stroke-linejoin="round"/>
<path d="M423.066 344.122C423.066 314.948 399.045 291.245 369.35 291.245C339.655 291.245 315.634 314.948 315.634 344.122C315.634 373.297 339.655 397 369.35 397C399.045 397 423.066 373.297 423.066 344.122Z" stroke="#A1C8E4" stroke-width="4"/>
<path d="M617.499 183.567C592.022 197.664 539.124 229.389 531.354 243.509" stroke="#4391C9" stroke-opacity="0.5" stroke-width="10" stroke-linecap="round" stroke-linejoin="round"/>
<path d="M533.797 244.599C551.594 267.413 584.872 270.777 608.149 251.936C631.425 233.094 635.727 199.311 617.931 176.496C600.135 153.682 566.856 150.319 543.58 169.16C520.304 188.001 516.001 221.785 533.797 244.599Z" stroke="#A1C8E4" stroke-width="4"/>
<path d="M419.125 120.376C414.744 91.1797 403.38 29.7295 392.974 17.4955" stroke="#4391C9" stroke-opacity="0.5" stroke-width="10" stroke-linecap="round" stroke-linejoin="round"/>
<path d="M391.133 19.4499C364.073 28.7548 349.65 59.4895 359.173 88.2282C368.696 116.967 398.454 132.509 425.514 123.204C452.574 113.9 466.997 83.1648 457.474 54.4261C447.951 25.6875 418.193 10.145 391.133 19.4499Z" stroke="#A1C8E4" stroke-width="4"/>
</svg>
